<svg width="386" height="51" viewBox="0 0 386 51" fill="none" xmlns="http://www.w3.org/2000/svg">
<g clip-path="url(#clip0_1_2)">
<path d="M83.51 15.76C82.35 11.34 73.89 9.42 62.02 10.11C57.42 3.97 50.09 0 41.82 0C29.04 0 18.49 9.51 16.83 21.83C5.7 27.15 -1.05 33.17 0.13 37.69C1.37 42.41 10.94 44.28 24.1 43.16C28.65 47.66 34.91 50.44 41.82 50.44C53.42 50.44 63.18 42.61 66.12 31.95C77.66 26.55 84.72 20.38 83.51 15.76ZM10.79 33.23C10.81 31.95 13.05 30.31 16.83 28.56C17.15 30.98 17.81 33.28 18.76 35.43C13.78 35.45 10.76 34.73 10.79 33.23ZM60.28 32.98L60.53 36.87L56.89 35.4L52.24 40.67L52.96 35.73L45.4 37.01L51.35 32.65L48.23 28.72L55.27 29.07L58.43 24.36L60.05 29.45L70.37 26.85L60.27 33L60.28 32.98ZM67.03 24.79C66.99 22.44 66.63 20.18 65.99 18.03C70.3 18.12 72.87 18.84 72.85 20.22C72.83 21.47 70.67 23.08 67.03 24.79Z" fill="black"/>
<path d="M128.23 32.93H111.98V47.94H105.02V32.93H89.08V26.64H128.22V32.93H128.23ZM115.75 4.98C119.93 4.98 124.31 6.68 124.31 11.99V15.91C124.31 19.78 120.7 22.72 115.9 22.72H101C95.84 22.72 92.44 20.35 92.44 16.27V11.53C92.44 7.56 96.05 4.98 100.18 4.98H115.76H115.75ZM114.72 17.46C116.73 17.46 118.07 16.27 118.07 13.95C118.07 11.63 116.73 10.6 114.72 10.6H101.83C99.41 10.6 98.53 12.15 98.53 13.95C98.53 15.75 99.2 17.46 101.83 17.46H114.72Z" fill="black"/>
<path d="M141.23 37.88C137.1 37.88 132.36 35.77 132.36 29.11V16.58C132.36 11.17 134.89 6.94 142.31 6.94H145.25C150.87 6.94 155 10.24 155 16.64V28.55C155 34.38 150.36 37.88 146.28 37.88H141.23ZM144.58 32.57C147.11 32.57 148.81 30.04 148.81 28.03V17.61C148.81 15.34 147.68 12.4 144.58 12.4H142.98C139.89 12.4 138.6 14.82 138.6 17.09V27.77C138.6 29.42 138.86 32.57 142.98 32.57H144.58ZM172.12 18.49V25.14H166.34V47.47H159.69V4.52H166.34V18.5H172.12V18.49Z" fill="black"/>
<path d="M190.06 7.46H198.36V12.2H194.65C195.84 13.44 196.56 15.14 196.56 16.94V22.3C196.56 26.63 193.36 29.73 189.7 29.73H183.31C179.65 29.73 176.4 26.69 176.4 22.82V16.94C176.4 15.14 177.12 13.43 178.31 12.2H174.7V7.46H183V4.52H190.07V7.46H190.06ZM210.08 46.91H179.24V32.62H185.74V40.77H210.08V46.91ZM190.58 18.29C190.58 16.64 189.34 15.4 187.64 15.4H185.47C183.82 15.4 182.32 16.64 182.32 18.29V21.59C182.32 23.29 183.3 24.53 184.95 24.53H187.84C189.54 24.53 190.57 23.29 190.57 21.59V18.29H190.58ZM208.63 16.12H214.72V22.31H208.63V33.81H201.98V4.47H208.63V16.12Z" fill="black"/>
<path d="M237.87 13.08H226.83V19.53H236.06V25.46H226.83V32.42H238.9V38.4H219.35V7.15H237.86V13.08H237.87ZM242.31 18.65V4.47H248.24V47.89H242.31V25.56H238.13V18.65H242.31ZM251.49 4.47H257.58V47.89H251.49V4.47Z" fill="black"/>
<path d="M262.73 42.42V36.33H301.51V42.42H262.73ZM267.37 8.23H296.82V13.8C296.82 20.45 295.89 25.45 294.91 28.91C294.34 30.92 293.67 32.62 293 34.07H286.6C288.25 30.82 288.61 28.24 289.18 24.94H268.19V19.16H289.95C290.1 16.43 290.31 15.4 290.16 14.05H267.36V8.22L267.37 8.23Z" fill="black"/>
<path d="M304.09 42.22V36.19H316.93V27.94H323.69V36.19H344.01V42.22H304.09ZM309.86 8.23H339.31V13.8C339.31 20.45 338.49 25.25 337.66 28.4C337.2 30.26 336.63 31.8 336.01 33.04H329.62C331.27 29.79 331.42 27.68 331.99 24.38H312.75V19.22H332.61C332.77 16.49 332.82 15.25 332.66 13.86H309.86V8.24V8.23Z" fill="black"/>
<path d="M385.83 42.73H346.58V36.59H385.83V42.73ZM369.84 7.3C370.51 12.66 377.47 24.22 382.53 30.77H374.38C370.92 26.49 368.66 22.21 366.23 17.82C364.22 22.15 361.38 27.1 358.44 30.77H348.85C357.05 22.83 361.38 10.81 361.79 7.3H369.84Z" fill="black"/>
</g>
<defs>
<clipPath id="clip0_1_2">
<rect width="385.83" height="50.44" fill="white"/>
</clipPath>
</defs>
</svg>
